<svg id="Layer_1" data-name="Layer 1" xmlns="http://www.w3.org/2000/svg" viewBox="0 0 64 64"><title>Alta</title><path d="M24,64.41,16.59,57l.7-.71A5,5,0,0,0,19,52a6.77,6.77,0,0,0-7-7,5,5,0,0,0-4.29,1.71l-.71.7L-.41,40,40-.41,47.41,7l-.7.71A5,5,0,0,0,45,12a6.77,6.77,0,0,0,7,7,5,5,0,0,0,4.29-1.71l.71-.7L64.41,24ZM19.39,57,24,61.59,61.59,24,57,19.39A6.9,6.9,0,0,1,52,21a8.8,8.8,0,0,1-9-9,6.9,6.9,0,0,1,1.61-5L40,2.41,2.41,40,7,44.61A6.9,6.9,0,0,1,12,43a8.8,8.8,0,0,1,9,9A6.9,6.9,0,0,1,19.39,57Z" fill="#ec7e26"/><rect x="27" y="14.17" width="2" height="5.66" transform="translate(-3.82 24.78) rotate(-45)" fill="#ec7e26"/><rect x="46" y="33.17" width="2" height="5.66" transform="translate(-11.69 43.78) rotate(-45)" fill="#ec7e26"/><rect x="33" y="20.17" width="2" height="5.66" transform="translate(-6.3 30.78) rotate(-45)" fill="#ec7e26"/><rect x="40" y="27.17" width="2" height="5.66" transform="translate(-9.2 37.78) rotate(-45)" fill="#ec7e26"/><line x1="17.04" y1="28.78" x2="33.54" y2="46.56" fill="#ec7e26" stroke="#ec7e26" stroke-miterlimit="10" stroke-width="2"/></svg>