<svg width="53" height="50" viewBox="0 0 53 50" fill="none" xmlns="http://www.w3.org/2000/svg">
<path fill-rule="evenodd" clip-rule="evenodd" d="M47.5 0.25H5.5C2.6125 0.25 0.25 2.725 0.25 5.75V44.25C0.25 47.275 2.6125 49.75 5.5 49.75H47.5C50.3875 49.75 52.75 47.275 52.75 44.25V5.75C52.75 2.725 50.3875 0.25 47.5 0.25ZM21.25 38.75H8.125V33.25H21.25V38.75ZM21.25 27.75H8.125V22.25H21.25V27.75ZM21.25 16.75H8.125V11.25H21.25V16.75ZM33.9025 33.25L26.5 25.44L30.2013 21.5625L33.9025 25.4675L42.2238 16.75L45.9512 20.655L33.9025 33.25Z" fill="#16E990"/>
</svg>
