<svg width="160" height="159" viewBox="0 0 160 159" fill="none" xmlns="http://www.w3.org/2000/svg">
<g filter="url(#filter0_d_350_201)">
<g filter="url(#filter1_i_350_201)">
<circle cx="80" cy="74" r="74" fill="#F29502"/>
</g>
<g filter="url(#filter2_d_350_201)">
<path d="M34.0902 64.3256C34.5875 64.3256 34.9782 64.4854 35.2624 64.8051C35.5643 65.107 35.7153 65.5155 35.7153 66.0305V81.6682C35.7153 82.1833 35.5643 82.6006 35.2624 82.9203C34.9605 83.24 34.5698 83.3998 34.0902 83.3998C33.5219 83.3998 33.0868 83.1956 32.7849 82.7871L23.0613 70.1331V81.6682C23.0613 82.1833 22.9192 82.6006 22.635 82.9203C22.3509 83.24 21.9602 83.3998 21.4629 83.3998C20.9656 83.3998 20.5749 83.24 20.2907 82.9203C20.0066 82.6006 19.8645 82.1833 19.8645 81.6682V66.0305C19.8645 65.5155 20.0154 65.107 20.3174 64.8051C20.6193 64.4854 21.0189 64.3256 21.5162 64.3256C22.0667 64.3256 22.493 64.5298 22.7949 64.9383L32.4918 77.539V66.0305C32.4918 65.5155 32.6339 65.107 32.9181 64.8051C33.22 64.4854 33.6107 64.3256 34.0902 64.3256ZM47.5187 83.4798C44.9435 83.4798 42.9899 82.8138 41.6579 81.4818C40.3259 80.1498 39.6599 78.205 39.6599 75.6476V66.0305C39.6599 65.5155 39.8108 65.107 40.1128 64.8051C40.4147 64.4854 40.8232 64.3256 41.3382 64.3256C41.8532 64.3256 42.2617 64.4854 42.5636 64.8051C42.8656 65.107 43.0165 65.5155 43.0165 66.0305V75.8341C43.0165 77.4502 43.3984 78.6757 44.162 79.5104C44.9257 80.3274 46.0446 80.7358 47.5187 80.7358C48.975 80.7358 50.085 80.3185 50.8487 79.4838C51.6124 78.649 51.9942 77.4325 51.9942 75.8341V66.0305C51.9942 65.5155 52.1452 65.107 52.4471 64.8051C52.749 64.4854 53.1575 64.3256 53.6725 64.3256C54.1876 64.3256 54.596 64.4854 54.898 64.8051C55.1999 65.107 55.3508 65.5155 55.3508 66.0305V75.6476C55.3508 78.1873 54.6848 80.132 53.3528 81.4818C52.0208 82.8138 50.0761 83.4798 47.5187 83.4798ZM67.6958 83.4798C65.8842 83.4798 64.2947 83.089 62.9272 82.3076C61.5774 81.5262 60.5385 80.4073 59.8103 78.9509C59.0822 77.4946 58.7181 75.7897 58.7181 73.8361C58.7181 71.8825 59.0822 70.1864 59.8103 68.7478C60.5385 67.2915 61.5774 66.1726 62.9272 65.3912C64.2947 64.6097 65.8842 64.219 67.6958 64.219C68.8679 64.219 69.969 64.3966 70.9991 64.7518C72.0292 65.0893 72.9438 65.5866 73.7431 66.2437C73.9739 66.4213 74.1338 66.6077 74.2226 66.8031C74.3114 66.9985 74.3558 67.2382 74.3558 67.5224C74.3558 67.9131 74.2492 68.2417 74.0361 68.5081C73.823 68.7745 73.5655 68.9077 73.2635 68.9077C72.9083 68.9077 72.5443 68.7833 72.1713 68.5347C71.4076 67.9664 70.6972 67.5757 70.0401 67.3626C69.383 67.1317 68.6548 67.0162 67.8556 67.0162C66.0086 67.0162 64.6055 67.5934 63.6465 68.7478C62.7052 69.9022 62.2346 71.5983 62.2346 73.8361C62.2346 76.0916 62.7052 77.7966 63.6465 78.9509C64.6055 80.1054 66.0086 80.6826 67.8556 80.6826C68.6193 80.6826 69.3208 80.5671 69.9602 80.3362C70.6173 80.1054 71.3543 79.7146 72.1713 79.1641C72.3489 79.0575 72.5265 78.9687 72.7041 78.8977C72.8817 78.8266 73.0682 78.7911 73.2635 78.7911C73.5655 78.7911 73.823 78.9243 74.0361 79.1907C74.2492 79.4571 74.3558 79.7857 74.3558 80.1764C74.3558 80.4428 74.3114 80.6826 74.2226 80.8957C74.1338 81.091 73.9739 81.2775 73.7431 81.4551C72.9438 82.1122 72.0292 82.6184 70.9991 82.9736C69.969 83.311 68.8679 83.4798 67.6958 83.4798ZM78.9841 83.24C78.469 83.24 78.0694 83.0979 77.7853 82.8138C77.5011 82.5296 77.359 82.1389 77.359 81.6416V66.0305C77.359 65.5155 77.51 65.107 77.8119 64.8051C78.1316 64.4854 78.5489 64.3256 79.064 64.3256C79.5968 64.3256 80.0141 64.4854 80.3161 64.8051C80.6357 65.107 80.7956 65.5155 80.7956 66.0305V80.4162H88.2814C89.347 80.4162 89.8798 80.8868 89.8798 81.8281C89.8798 82.7694 89.347 83.24 88.2814 83.24H78.9841ZM93.7876 83.24C93.2725 83.24 92.8641 83.0979 92.5621 82.8138C92.278 82.5296 92.1359 82.13 92.1359 81.615V66.0838C92.1359 65.5688 92.278 65.1692 92.5621 64.885C92.8641 64.6009 93.2725 64.4588 93.7876 64.4588H103.405C103.92 64.4588 104.319 64.5742 104.603 64.8051C104.888 65.036 105.03 65.3646 105.03 65.7908C105.03 66.2348 104.888 66.5811 104.603 66.8297C104.319 67.0606 103.92 67.1761 103.405 67.1761H95.4925V72.3442H102.872C103.387 72.3442 103.786 72.4597 104.071 72.6905C104.355 72.9214 104.497 73.2589 104.497 73.7029C104.497 74.1291 104.355 74.4577 104.071 74.6886C103.786 74.9194 103.387 75.0349 102.872 75.0349H95.4925V80.5227H103.405C103.92 80.5227 104.319 80.647 104.603 80.8957C104.888 81.1266 105.03 81.464 105.03 81.908C105.03 82.3342 104.888 82.6628 104.603 82.8937C104.319 83.1246 103.92 83.24 103.405 83.24H93.7876ZM115.576 83.4798C113 83.4798 111.047 82.8138 109.715 81.4818C108.383 80.1498 107.717 78.205 107.717 75.6476V66.0305C107.717 65.5155 107.868 65.107 108.17 64.8051C108.472 64.4854 108.88 64.3256 109.395 64.3256C109.91 64.3256 110.319 64.4854 110.621 64.8051C110.922 65.107 111.073 65.5155 111.073 66.0305V75.8341C111.073 77.4502 111.455 78.6757 112.219 79.5104C112.983 80.3274 114.101 80.7358 115.576 80.7358C117.032 80.7358 118.142 80.3185 118.906 79.4838C119.669 78.649 120.051 77.4325 120.051 75.8341V66.0305C120.051 65.5155 120.202 65.107 120.504 64.8051C120.806 64.4854 121.214 64.3256 121.729 64.3256C122.244 64.3256 122.653 64.4854 122.955 64.8051C123.257 65.107 123.408 65.5155 123.408 66.0305V75.6476C123.408 78.1873 122.742 80.132 121.41 81.4818C120.078 82.8138 118.133 83.4798 115.576 83.4798ZM133.861 83.4798C132.494 83.4798 131.197 83.3022 129.972 82.947C128.764 82.574 127.778 82.0767 127.015 81.4551C126.606 81.1532 126.402 80.727 126.402 80.1764C126.402 79.8034 126.509 79.4838 126.722 79.2174C126.953 78.9332 127.219 78.7911 127.521 78.7911C127.841 78.7911 128.205 78.9154 128.613 79.1641C129.377 79.7146 130.176 80.1142 131.011 80.3629C131.845 80.6115 132.769 80.7358 133.781 80.7358C135.078 80.7358 136.072 80.5138 136.765 80.0698C137.458 79.6081 137.804 78.9421 137.804 78.0718C137.804 77.397 137.475 76.8819 136.818 76.5267C136.179 76.1538 135.104 75.7986 133.595 75.4611C132.032 75.1237 130.762 74.7329 129.785 74.2889C128.808 73.8449 128.071 73.2766 127.574 72.584C127.077 71.8914 126.828 71.0122 126.828 69.9466C126.828 68.8455 127.139 67.8598 127.761 66.9896C128.382 66.1193 129.244 65.4445 130.345 64.9649C131.464 64.4677 132.716 64.219 134.101 64.219C136.641 64.219 138.71 64.8939 140.308 66.2437C140.539 66.439 140.699 66.6344 140.788 66.8297C140.894 67.0073 140.947 67.2382 140.947 67.5224C140.947 67.8954 140.832 68.2239 140.601 68.5081C140.388 68.7745 140.13 68.9077 139.829 68.9077C139.651 68.9077 139.482 68.881 139.322 68.8278C139.18 68.7745 138.985 68.6768 138.736 68.5347C138.008 68.0019 137.298 67.6112 136.605 67.3626C135.93 67.0962 135.096 66.963 134.101 66.963C132.893 66.963 131.934 67.2116 131.224 67.7089C130.531 68.1884 130.185 68.8633 130.185 69.7335C130.185 70.4617 130.496 71.0211 131.117 71.4118C131.739 71.8025 132.796 72.1666 134.287 72.5041C135.868 72.8593 137.147 73.2589 138.124 73.7029C139.118 74.1291 139.873 74.6797 140.388 75.3546C140.921 76.0294 141.187 76.873 141.187 77.8854C141.187 78.9865 140.876 79.9633 140.255 80.8158C139.651 81.6505 138.79 82.3076 137.671 82.7871C136.57 83.2489 135.3 83.4798 133.861 83.4798Z" fill="white"/>
</g>
<path d="M70.8686 111.077C67.8901 111.077 65.4531 113.539 65.4531 116.548C65.4531 119.556 67.8901 122.018 70.8686 122.018C73.8472 122.018 76.2842 119.556 76.2842 116.548C76.2842 113.539 73.8472 111.077 70.8686 111.077ZM78.9919 97.4019C76.0134 97.4019 73.5764 99.8635 73.5764 102.872C73.5764 105.881 76.0134 108.342 78.9919 108.342C81.9705 108.342 84.4075 105.881 84.4075 102.872C84.4075 99.8635 81.9705 97.4019 78.9919 97.4019ZM87.1152 111.077C84.1367 111.077 81.6997 113.539 81.6997 116.548C81.6997 119.556 84.1367 122.018 87.1152 122.018C90.0938 122.018 92.5307 119.556 92.5307 116.548C92.5307 113.539 90.0938 111.077 87.1152 111.077Z" fill="white"/>
</g>
<defs>
<filter id="filter0_d_350_201" x="0.940171" y="0" width="158.12" height="158.12" filterUnits="userSpaceOnUse" color-interpolation-filters="sRGB">
<feFlood flood-opacity="0" result="BackgroundImageFix"/>
<feColorMatrix in="SourceAlpha" type="matrix" values="0 0 0 0 0 0 0 0 0 0 0 0 0 0 0 0 0 0 127 0" result="hardAlpha"/>
<feOffset dy="5.05983"/>
<feGaussianBlur stdDeviation="2.52991"/>
<feComposite in2="hardAlpha" operator="out"/>
<feColorMatrix type="matrix" values="0 0 0 0 0 0 0 0 0 0 0 0 0 0 0 0 0 0 0.25 0"/>
<feBlend mode="normal" in2="BackgroundImageFix" result="effect1_dropShadow_350_201"/>
<feBlend mode="normal" in="SourceGraphic" in2="effect1_dropShadow_350_201" result="shape"/>
</filter>
<filter id="filter1_i_350_201" x="6" y="0" width="148" height="150.96" filterUnits="userSpaceOnUse" color-interpolation-filters="sRGB">
<feFlood flood-opacity="0" result="BackgroundImageFix"/>
<feBlend mode="normal" in="SourceGraphic" in2="BackgroundImageFix" result="shape"/>
<feColorMatrix in="SourceAlpha" type="matrix" values="0 0 0 0 0 0 0 0 0 0 0 0 0 0 0 0 0 0 127 0" result="hardAlpha"/>
<feOffset dy="2.96"/>
<feGaussianBlur stdDeviation="1.48"/>
<feComposite in2="hardAlpha" operator="arithmetic" k2="-1" k3="1"/>
<feColorMatrix type="matrix" values="0 0 0 0 0 0 0 0 0 0 0 0 0 0 0 0 0 0 0.25 0"/>
<feBlend mode="normal" in2="shape" result="effect1_innerShadow_350_201"/>
</filter>
<filter id="filter2_d_350_201" x="16.9043" y="64.219" width="127.243" height="25.1807" filterUnits="userSpaceOnUse" color-interpolation-filters="sRGB">
<feFlood flood-opacity="0" result="BackgroundImageFix"/>
<feColorMatrix in="SourceAlpha" type="matrix" values="0 0 0 0 0 0 0 0 0 0 0 0 0 0 0 0 0 0 127 0" result="hardAlpha"/>
<feOffset dy="2.96"/>
<feGaussianBlur stdDeviation="1.48"/>
<feComposite in2="hardAlpha" operator="out"/>
<feColorMatrix type="matrix" values="0 0 0 0 0 0 0 0 0 0 0 0 0 0 0 0 0 0 0.25 0"/>
<feBlend mode="normal" in2="BackgroundImageFix" result="effect1_dropShadow_350_201"/>
<feBlend mode="normal" in="SourceGraphic" in2="effect1_dropShadow_350_201" result="shape"/>
</filter>
</defs>
</svg>
